<?xml version="1.0" encoding="UTF-8" standalone="no"?>
<!-- Generator: Adobe Illustrator 24.0.0, SVG Export Plug-In . SVG Version: 6.00 Build 0)  -->

<svg
   version="1.1"
   id="Layer_1"
   x="0px"
   y="0px"
   viewBox="0 0 256.7 278.2"
   style="enable-background:new 0 0 256.7 278.2;"
   xml:space="preserve"
   sodipodi:docname="ouro_logo_dark.svg"
   inkscape:version="1.2.1 (8a69933317, 2022-10-28, custom)"
   xmlns:inkscape="http://www.inkscape.org/namespaces/inkscape"
   xmlns:sodipodi="http://sodipodi.sourceforge.net/DTD/sodipodi-0.dtd"
   xmlns="http://www.w3.org/2000/svg"
   xmlns:svg="http://www.w3.org/2000/svg"><defs
   id="defs82" /><sodipodi:namedview
   id="namedview80"
   pagecolor="#ffffff"
   bordercolor="#666666"
   borderopacity="1.0"
   inkscape:showpageshadow="2"
   inkscape:pageopacity="0.0"
   inkscape:pagecheckerboard="0"
   inkscape:deskcolor="#d1d1d1"
   showgrid="false"
   inkscape:zoom="2.058794"
   inkscape:cx="138.91628"
   inkscape:cy="144.25921"
   inkscape:window-width="1920"
   inkscape:window-height="1016"
   inkscape:window-x="1920"
   inkscape:window-y="27"
   inkscape:window-maximized="1"
   inkscape:current-layer="Layer_1" />
<path
   d="M127.8,8.9C138.4,7.7,148,2.8,158.3,0c1.4,2.8,3.1,6.2,6.8,6.2c3.7,0.6,5.8-3,7.5-5.7c8.9,3.5,17.1,8.4,26.2,11.4  c4.7,1.6,10.4,1.3,14,5.3c4.3,4.7,4.4,11.5,3.7,17.4c-0.9,4.7-3.6,9.7-8.6,10.9c-4.8,1.2-9.6,2-14.1,4c-7.3,2.9-14,7.4-21.7,9.5  c-1-1.8-2.1-3.5-3.2-5.3c-2.3,0-4.8-0.2-6.9,1c-1.4,1.2-2.3,2.9-3.3,4.4c-11.2-0.6-21.2-7.2-32.5-7c-11.7,0.2-23.3,3-33.9,7.9  c-23,9.1-41.6,27.8-51.9,50.2c-5.6,12.5-9.1,26-9.6,39.7c-0.4,23.5,6.7,47.4,21.1,66.1c6.9,10,16.2,18.2,26.2,25  c21.2,14.9,48.3,20.4,73.9,17.3c31.2-3.7,60.4-21.6,77.9-47.7c11.7-16.3,18.2-35.9,19.7-55.8c1.8-15.8-0.9-31.8-5.8-46.8  c-3.8-12.3-10.5-23.5-18.2-33.7c-3.9-5.4-8.8-9.8-13.4-14.5c9.2,6.7,16.8,15.3,23.2,24.7c11.6,16.4,18.4,35.9,20.9,55.8  c0.6,12.5,1,25.2-1.9,37.4c-4.9,25.1-18.1,48.4-36.7,65.9c-9.1,9.3-20.3,16-31.7,22.1c-11,5.4-22.9,9.3-35.1,10.8  c-24.9,4.2-51.1,0.9-74.1-9.7c-4.8-2.4-9.4-5.2-14.1-7.7c-18.5-11.5-34.4-27.5-45.2-46.4C7.8,194.5,0.6,174.6,0,154  c0.1-10-0.6-20,1.3-29.9c5.1-30.1,20.1-58.6,42.9-79c12.3-11.6,27-20.3,42.6-26.6C99.8,12.9,113.8,10.4,127.8,8.9z"
   id="path75"
   style="fill:#173f4f;fill-opacity:1" />
<path
   d="M118.8,106.4c5.9-0.8,12-0.8,18,0c12.7,2.8,23.8,12,28.8,24.1c5.9,12.1,4.2,26.8-2.6,38.2c-5.8,8.6-14.3,15.6-24.5,18.1  c-4.4,0.8-8.9,2.4-13.5,1.6c-6.2-1-12.6-2.3-18-5.7c-13.3-7.4-21.9-22.7-20.9-38c0-8.7,4-16.9,9.1-23.8  C100.8,113.4,109.6,108.5,118.8,106.4z"
   id="path77"
   style="fill:#173f4f;fill-opacity:1" />
<path
   style="fill:#173f4f;stroke-width:0.343457;fill-opacity:1"
   d="M 118.83605,277.64492 C 106.74569,276.57445 94.33537,273.64588 83.116543,269.21587 77.123452,266.84936 64.984786,260.44138 59.246296,256.61481 40.620992,244.19498 24.556066,226.50033 15.543259,208.47827 7.1242414,191.64356 2.4278851,176.73297 0.61471738,161.08123 0.03534242,156.07992 0.05042966,134.94514 0.63702875,129.82667 1.6653203,120.85412 4.7676693,108.28152 8.2843306,98.835163 15.374709,79.789175 25.699306,63.680567 39.822039,49.629506 53.559411,35.961853 67.567042,26.708787 86.279722,18.940811 98.127192,14.02271 107.48664,11.705072 124.61603,9.447764 134.425,8.15514 135.49854,7.8734673 151.45487,2.4059045 c 3.83668,-1.3146681 6.73809,-2.14086023 6.80572,-1.93796393 0.0648,0.19452119 0.71795,1.28208733 1.45136,2.41681363 1.62837,2.5193965 3.25503,3.4691964 5.94148,3.4691964 1.35452,0 2.16145,-0.208605 3.00444,-0.7766983 1.04594,-0.7048565 2.91893,-2.8646238 3.70977,-4.2777749 0.38795,-0.69322018 0.0737,-0.81422829 10.69483,4.1183721 11.65279,5.4117195 14.71791,6.5839055 20.48038,7.8322505 5.82296,1.261449 8.13488,2.517315 10.18167,5.530826 2.15145,3.167616 2.76997,5.596577 2.78276,10.928086 0.0117,4.899034 -0.32772,6.562213 -2.03623,9.975923 -0.92567,1.849566 -3.14815,4.162875 -4.70724,4.899631 -0.61259,0.289482 -3.67496,1.153314 -6.80525,1.919621 -6.48409,1.587327 -8.99665,2.546141 -17.66362,6.740569 -3.40022,1.645557 -7.71763,3.5777 -9.59423,4.29365 l -3.412,1.301725 -1.70024,-2.762787 -1.70023,-2.76279 -2.59047,0.218977 c -3.4524,0.291832 -4.74496,0.981487 -6.41648,3.423547 l -1.37168,2.003991 -1.89116,-0.222598 c -2.90029,-0.341372 -6.79965,-1.328803 -13.49596,-3.417566 -9.58733,-2.990554 -11.99556,-3.394023 -18.96286,-3.177007 -12.55319,0.391005 -23.68537,3.465442 -38.123704,10.528833 -9.952176,4.86872 -16.857488,9.811956 -24.941379,17.854536 -12.108054,12.046184 -19.601721,24.169373 -25.018577,40.474853 -2.211594,6.65721 -3.462759,11.8442 -4.571501,18.95221 -0.935844,5.99959 -0.99238,18.10173 -0.116344,24.90493 1.309942,10.17286 3.704188,19.46636 7.299885,28.33518 6.48205,15.98806 18.030166,31.49327 31.317644,42.049 16.339558,12.98034 31.636936,19.70359 52.260656,22.96873 4.06254,0.64318 6.05362,0.73412 15.97505,0.72959 9.85268,-0.005 11.94066,-0.10053 15.97505,-0.73476 31.17358,-4.90066 57.27817,-21.04652 75.12597,-46.46589 13.45372,-19.16121 19.7813,-38.58696 20.92056,-64.22642 0.56615,-12.74149 -2.87674,-31.50628 -8.32763,-45.38808 -4.2906,-10.92687 -12.89628,-24.772217 -20.87235,-33.580723 -1.44084,-1.591218 -2.52817,-2.982218 -2.41629,-3.091111 0.31487,-0.306453 7.58983,7.369157 10.89638,11.496481 13.68009,17.075806 21.9665,35.792223 25.84278,58.370723 0.89906,5.23684 0.94475,6.05261 0.97133,17.34456 0.0296,12.57717 -0.17228,15.26241 -1.7302,23.01161 -4.30825,21.42959 -12.21341,38.5146 -25.63271,55.39862 -3.71831,4.67833 -13.59857,14.6993 -18.27082,18.53102 -6.33702,5.19699 -16.82064,11.83374 -25.77195,16.31515 -7.25716,3.63325 -18.76338,7.61366 -26.44617,9.14868 -4.16993,0.83315 -13.92196,2.19778 -18.54667,2.5953 -4.77236,0.41021 -16.37752,0.39812 -21.12259,-0.022 z"
   id="path271" /><path
   style="fill:#173f4f;stroke-width:0.343457;fill-opacity:1"
   d="m 121.22458,187.53595 c -11.57275,-2.32469 -20.17398,-7.50058 -26.54202,-15.97194 -6.570224,-8.74033 -9.558776,-19.86075 -8.158206,-30.35673 1.101533,-8.25498 5.769635,-17.35095 12.195153,-23.76271 4.596653,-4.58681 9.774223,-7.70045 16.271643,-9.78528 7.14761,-2.29346 18.69906,-2.27646 25.60737,0.0377 12.7281,4.26366 22.51907,14.49723 26.7666,27.97658 2.26829,7.19829 2.09827,15.82943 -0.47004,23.86212 -3.23837,10.12841 -10.84009,18.99596 -20.58249,24.00989 -3.80234,1.95687 -6.19764,2.74008 -12.09689,3.95542 -5.20387,1.07207 -7.7935,1.07904 -12.99112,0.035 z"
   id="path342" /></svg>
